{"title":"Inna.Feat.Carla's.Dreams-P.O.H.U.I~subtitled~10BiT.720p.[gWc].mk","uid":8252569,"size":26137089,"categoryP":"video","categoryS":"music_videos","magnet":"?xt=urn:btih:021e8bb73d6d3a2fc3a97ef27075d65549a6c19b&amp;dn=Inna.Feat.Carla%27s.Dreams-P.O.H.U.I%7Esubtitled%7E10BiT.720p.%5BgWc%5D.mk&amp;tr=udp%3A%2F%2Ftracker.openbittorrent.com%3A80&amp;tr=udp%3A%2F%2Fopen.demonii.com%3A1337&amp;tr=udp%3A%2F%2Ftracker.coppersurfer.tk%3A6969&amp;tr=udp%3A%2F%2Fexodus.desync.com%3A6969","seeders":1,"leechers":0,"uploader":"canc232","files":1,"time":1363192162,"description":"\nFormat : Matroska\nFormat version : Version 4 / Version 2\nFile size : 24.9 MiB\nDuration : 4mn 1s\nOverall bit rate mode : Variable\nOverall bit rate : 864 Kbps\nEncoded date : UTC 2013-03-13 13:35:52\nWriting application : mkvmerge v6.1.0 ('Old Devil') built on Mar 2 2013 14:32:37\nWriting library : libebml v1.3.0 + libmatroska v1.4.0\n\nVideo\nID : 1\nFormat : AVC\nFormat/Info : Advanced Video Codec\nFormat profile : High &lt;a class=&quot;__cf_email__&quot; href=&quot;/cdn-cgi/l/email-protection&quot; data-cfemail=&quot;e7d6d7a7abd2c9d7&quot;&gt;[email&amp;#160;protected]&lt;/a&gt;&lt;script cf-hash='f9e31' type=&quot;text/javascript&quot;&gt;\n/* &lt;![CDATA[ */!function(){try{var t=&quot;currentScript&quot;in document?document.currentScript:function(){for(var t=document.getElementsByTagName(&quot;script&quot;),e=t.length;e--;)if(t[e].getAttribute(&quot;cf-hash&quot;))return t[e]}();if(t&amp;&amp;t.previousSibling){var e,r,n,i,c=t.previousSibling,a=c.getAttribute(&quot;data-cfemail&quot;);if(a){for(e=&quot;&quot;,r=parseInt(a.substr(0,2),16),n=2;a.length-n;n+=2)i=parseInt(a.substr(n,2),16)^r,e+=String.fromCharCode(i);e=document.createTextNode(e),c.parentNode.replaceChild(e,c)}}}catch(u){}}();/* ]]&gt; */&lt;/script&gt;\nFormat settings, CABAC : Yes\nFormat settings, ReFrames : 2 frames\nCodec ID : V_MPEG4/ISO/AVC\nDuration : 4mn 1s\nBit rate mode : Variable\nBit rate : 671 Kbps\nMaximum bit rate : 169 Mbps\nWidth : 1 280 pixels\nHeight : 720 pixels\nDisplay aspect ratio : 16:9\nFrame rate mode : Constant\nFrame rate : 24.000 fps\nColor space : YUV\nChroma subsampling : 4:2:0\nBit depth : 10 bits\nScan type : Progressive\nBits/(Pixel*Frame) : 0.030\nStream size : 18.9 MiB (76%)\nWriting library : x264\nDefault : Yes\nForced : No\n\nAudio\nID : 2\nFormat : AC-3\nFormat/Info : Audio Coding 3\nMode extension : CM (complete main)\nFormat settings, Endianness : Big\nCodec ID : A_AC3\nDuration : 4mn 1s\nBit rate mode : Constant\nBit rate : 192 Kbps\nChannel(s) : 2 channels\nChannel positions : Front: L R\nSampling rate : 48.0 KHz\nBit depth : 16 bits\nCompression mode : Lossy\nStream size : 5.54 MiB (22%)\nDefault : Yes\nForced : No\n\nText\nID : 3\nFormat : UTF-8\nCodec ID : S_TEXT/UTF8\nCodec ID/Info : UTF-8 Plain Text\nDefault : Yes\nForced : No","torrent":{"xt":"urn:btih:021e8bb73d6d3a2fc3a97ef27075d65549a6c19b","amp;dn":"Inna.Feat.Carla%27s.Dreams-P.O.H.U.I%7Esubtitled%7E10BiT.720p.%5BgWc%5D.mk","amp;tr":["udp%3A%2F%2Ftracker.openbittorrent.com%3A80","udp%3A%2F%2Fopen.demonii.com%3A1337","udp%3A%2F%2Ftracker.coppersurfer.tk%3A6969","udp%3A%2F%2Fexodus.desync.com%3A6969"],"infoHash":"021e8bb73d6d3a2fc3a97ef27075d65549a6c19b","infoHashBuffer":{"type":"Buffer","data":[2,30,139,183,61,109,58,47,195,169,126,242,112,117,214,85,73,166,193,155]},"announce":[],"urlList":[]}}